<svg xmlns="http://www.w3.org/2000/svg" viewBox="0 0 639.23 707.55"><title>RIVPRO BAsset 3</title><g id="Layer_2" data-name="Layer 2"><g id="Layer_1-2" data-name="Layer 1"><path d="M523.13,208.58a205.61,205.61,0,0,1-4.73,39.12,202.34,202.34,0,0,1-71.13,114.51c-4.63,3.7-9.39,7.26-14.31,10.55-1.33.91-1.93,1.49-.38,2.94,5.21,5,10.2,10.23,15.36,15.24,1.24,1.22,1.15,2,0,3.08q-9.52,9.42-19,18.94c-1.08,1.13-1.7,1-2.75,0C410,396.58,375,361.68,374.73,361.4v0h0s0,0,0-.05c-.26-.26-7.95-7.66-8-8l0,0s0-.07,0-.09c-3.35-3.32-6.79-6.57-10-10-1.17-1.26-1.88-1.1-2.89-.09Q335,361.82,316.36,380.53a19.72,19.72,0,0,1-24.2,2.58c-10.91-7.12-12.47-21.36-3.29-30.77,13.2-13.56,27-26.58,40-40.39,6.06-6.45,12.54-12.49,18.75-18.79.95-1,1.45-1.15,2.5-.08,4.4,4.54,8.94,8.94,13.38,13.43,4.61,4.63,35.78-14.83,45.71-26.47a117.88,117.88,0,0,0,25-103c-.88-3.7-4.8-14.85-5.4-16.38-.81-2.48-3.15-8.07-3.36-8.5a113.79,113.79,0,0,0-16.29-24.84A117.68,117.68,0,0,0,345.88,89a143.69,143.69,0,0,0-25.18-3.08V.3A132.21,132.21,0,0,1,336,.85a195.82,195.82,0,0,1,31.86,5,192.9,192.9,0,0,1,24.82,7.78A209.13,209.13,0,0,1,429.5,32.38,202.45,202.45,0,0,1,469.17,65.6a188.85,188.85,0,0,1,24.08,31.87c.19.31.62.5.93.76.48.86,1,1.74,1.43,2.63.72,2.31,2.27,4.15,3.63,6.09.51,1.19,1,2.39,1.56,3.58a202.55,202.55,0,0,1,19,56.27A202.71,202.71,0,0,1,523.13,208.58Z" style="fill:#10bef0"/><path d="M279.65,452.89a15.59,15.59,0,0,1-4.84,10c-8.66,8.65-17.41,17.22-26,26-4.8,4.89-12.83,5.94-18.27,2.81-7-4-9.51-10.46-7.5-17.91,1-3.69,3.5-6.13,6-8.65,8.37-8.31,16.6-16.78,25.13-24.92,4.79-4.58,10.63-5,16.62-2.4C276,440.05,279.64,446,279.65,452.89Z" style="fill:#10bef0"/><path d="M266.39,517.71a15.27,15.27,0,0,1-14.21-9.89,14.77,14.77,0,0,1,3.39-16.37c7.78-8,15.7-15.85,23.66-23.66,8.34-8.19,21.91-5.2,25.59,5.79a14.78,14.78,0,0,1-3.57,15.73c-7.79,8-15.72,15.79-23.62,23.64A16.05,16.05,0,0,1,266.39,517.71Z" style="fill:#10bef0"/><path d="M235.11,411.77c7-.06,11.62,3.05,14.31,8.61,3,6.11,2.12,12.06-2.69,17-6.37,6.58-12.79,13.11-19.45,19.4-4.83,4.56-13.08,4.69-18.51.81a15.49,15.49,0,0,1-5.64-17.82,17.16,17.16,0,0,1,4-6.11l17.13-17.13C227.41,413.4,231.07,411.47,235.11,411.77Z" style="fill:#10bef0"/><path d="M311.61,493.86c6.74.08,11.53,3.36,14,9.47,2.43,5.95,1.44,11.63-3.12,16.32-3.71,3.81-6.89,8.32-11.85,10.64A14.36,14.36,0,0,1,295,528.67c-5.13-3.94-7-9.17-5.8-15.6,1-5.23,4.88-8.27,8.28-11.68,2.22-2.23,4.24-4.67,7.22-6.08A15,15,0,0,1,311.61,493.86Z" style="fill:#10bef0"/><path d="M366.63,353.29l0-.11,0,0Z" style="fill:#728a3b"/><path d="M129.66,277.18l-.09-.34c-.07.26-.16.55.2.69h0C129.73,277.42,129.7,277.3,129.66,277.18Z" style="fill:#056aaf"/><path d="M439.8,434.54q-27.92-27.9-55.78-55.86c-4.72-4.75-9.6-9.37-14.4-14l-13.06-13.3c-1.17-1.47-1.82-1.23-3,0-10.73,10.81-21.55,21.54-32.3,32.33-7.85,7.89-17.05,10-27.58,6.5s-17.72-15.74-16.34-26.66c1.05-8.31,6-13.9,11.56-19.36,9.67-9.46,19.2-19.07,28.78-28.62,1-1,1.51-1.7.14-3-7.14-7-14.16-14.07-21.19-21.17-1.14-1.17-1.84-1-2.93.17-6.23,6.35-12.61,12.57-18.87,18.92a2.44,2.44,0,0,1-3.22.6,118,118,0,0,1-52.74-47,116.35,116.35,0,0,1-14-85c7.07-31.7,24.27-56.32,51.3-74.19A115.17,115.17,0,0,1,293.29,89a127.49,127.49,0,0,1,23.21-3c1,.1,2,.13,3,.13s2.24,0,3.34-.13h0a43.09,43.09,0,0,0,1-85.81h0C322.53.08,321.12,0,319.7,0h-.18c-.42,0-.82,0-1.23,0s-.83,0-1.26,0A229.39,229.39,0,0,0,285.22,3c-3.94.7-8,1-11.73,2.65-.89-.83-1.44-.21-2,.43-.45.06-.95.06-1.42.17a195.3,195.3,0,0,0-37.22,13.3,206.64,206.64,0,0,0-43.11,27.52,201.79,201.79,0,0,0-46.84,55.66,198.56,198.56,0,0,0-22.72,60.78,232.86,232.86,0,0,0-4,33.06,182,182,0,0,0,1.14,28.85,192.77,192.77,0,0,0,7,35.5c1.58,5.29,3.44,10.53,5.16,15.78a.15.15,0,0,0,.05.12l.08.35c0,.12.07.24.11.34h0A41.92,41.92,0,0,0,134.36,288a242.69,242.69,0,0,0,14,25.55A204.33,204.33,0,0,0,192,362.22l5,4.09c4,2.74,7.92,5.42,11.82,8.06,1.41,1,.43,1.58-.29,2.3-4,4-8.09,8.07-12.2,12.06-1.29,1.25-1.72,2.08-.12,3.61,6.93,6.69,13.73,13.47,20.47,20.35,1.43,1.46,2.1,1.62,3.65.07,6.66-6.61,16.25-8.31,24.08-4.52,8.07,3.93,13,12.43,12,21.08-.27,2.35.26,2.55,2.35,2,15.08-3.9,29.12,10,25.44,25.15-.47,1.88.06,1.65,1.46,1.36a20.87,20.87,0,0,1,24.82,20.37,18.73,18.73,0,0,1-1.45,8.2c-.53,1.07-.49,1.93,1.14,1.67a10.42,10.42,0,0,1,1.48,0,21.11,21.11,0,0,1,18.46,31c-.81,1.51-3,2.72-2.29,4.51.62,1.54,2.34,2.63,3.63,3.89,4.59,4.45,12,5.67,17.39,2.87,10-5.21,11.87-17.17,3.89-25.22-9-9.08-18-18.06-27-27.09-.5-.47-1.55-1.12-1.14-1.64a14,14,0,0,1,3.75-3.8c1.14-.69,1.86,1,2.6,1.72,13,12.9,25.87,25.87,38.84,38.79a15.19,15.19,0,0,0,3.89,2.93,15.42,15.42,0,0,0,17.58-25q-18.76-18.69-37.52-37.4c-3.42-3.44-3.4-3.42-.17-6.65,1-1,1.72-1,2.69,0L398,488.81s4.49,3.49,7.24,4.25c6,1.65,11.24,0,15.38-4.6s5.09-9.7,3-15.56c-1.32-3.75-4.24-6.16-6.86-8.81q-19.14-19.2-38.31-38.36c-.56-.58-1.68-1.12-1.29-1.91a9.88,9.88,0,0,1,3.63-3.85c1.09-.71,1.74.89,2.41,1.58,11.44,11.37,22.84,22.81,34.25,34.2,11.46,12.05,22,1.2,24.15-1.59C445.24,449.49,446.82,442.52,439.8,434.54ZM248.91,25.66a188.3,188.3,0,0,1,54-13.7,3.39,3.39,0,0,1,.68,6.74,181.14,181.14,0,0,0-52,13.21,3.56,3.56,0,0,1-1.31.26,3.39,3.39,0,0,1-1.31-6.51Zm-98.8,107.26a3.3,3.3,0,0,1-1.29-.26,3.4,3.4,0,0,1-1.84-4.42A189.46,189.46,0,0,1,239.44,30a3.39,3.39,0,1,1,3,6.09,182.69,182.69,0,0,0-89.16,94.78A3.38,3.38,0,0,1,150.11,132.92Zm48.72,219.61a3.39,3.39,0,0,1-4.76.51,188,188,0,0,1-37.83-40.88,3.39,3.39,0,1,1,5.6-3.81,181.19,181.19,0,0,0,36.47,39.41A3.4,3.4,0,0,1,198.83,352.53Z" style="fill:#224099"/><path d="M500.72,197.74a3.38,3.38,0,0,1-3.36-3.05,181.34,181.34,0,0,0-13.22-52,3.39,3.39,0,1,1,6.25-2.63,187.89,187.89,0,0,1,13.7,54,3.38,3.38,0,0,1-3,3.71Z" style="fill:#fff"/><path d="M483.06,135.42a3.39,3.39,0,0,1-3.05-1.91,182.71,182.71,0,0,0-94.78-89.15,3.39,3.39,0,1,1,2.58-6.26,189.44,189.44,0,0,1,98.29,92.45,3.38,3.38,0,0,1-3,4.87Z" style="fill:#fff"/><path d="M164.4,599.5a26.56,26.56,0,0,0,13.9-23.25c0-8.17-2.8-15-8.53-20.21S157.16,548,148.86,548H116.15v81.77h20.91v-26.4h7.48l14.25,26.4h22.43Zm-15.77-13.9H137.06V567.26h11.57c5.14,0,8.76,3.73,8.76,9.23S153.77,585.71,148.63,585.6Z" style="fill:#224099"/><path d="M188.59,548v81.77H209.5V548Z" style="fill:#224099"/><path d="M270.72,548l-16,56.31L238.83,548h-22.9l26.4,81.77h24.88L293.61,548Z" style="fill:#224099"/><path d="M352.62,556c-5.61-5.37-12.5-8.06-20.79-8.06H300.05v81.77H321V605.22h10.87c8.29,0,15.18-2.68,20.79-8.06S361,584.9,361,576.6,358.23,561.42,352.62,556Zm-20.79,29.32H321V568h10.87c4.67,0,8.29,3.5,8.29,8.64S336.5,585.36,331.83,585.36Z" style="fill:#10bef0"/><path d="M417.46,599.5a26.56,26.56,0,0,0,13.9-23.25c0-8.17-2.8-15-8.52-20.21S410.22,548,401.93,548H369.22v81.77h20.91v-26.4h7.47l14.26,26.4h22.43Zm-15.77-13.9H390.13V567.26h11.56c5.14,0,8.77,3.73,8.77,9.23S406.83,585.71,401.69,585.6Z" style="fill:#10bef0"/><path d="M510.58,558.61c-8.29-8.29-18.34-12.38-30.38-12.38s-22.19,4.09-30.49,12.38-12.38,18.23-12.38,30.26,4.09,22.08,12.38,30.37,18.46,12.27,30.49,12.27,22.09-4.09,30.38-12.27a41.22,41.22,0,0,0,12.5-30.37C523.08,576.84,518.88,566.79,510.58,558.61ZM496,604.87a22.08,22.08,0,0,1-37.84-16c0-6.43,2.1-11.8,6.3-15.89A22.86,22.86,0,0,1,496,573c4.21,4.09,6.32,9.46,6.32,15.89A21.73,21.73,0,0,1,496,604.87Z" style="fill:#10bef0"/><polygon points="639.23 651.24 430.21 651.24 361.74 651.24 0 651.24 28.07 679.3 0 707.55 361.74 707.55 430.21 707.55 639.23 707.55 611.16 679.3 639.23 651.24" style="fill:#10bef0"/><path d="M57.17,688.41l-4.05-6.9H48.87v6.9H46.48v-18h7.21a5.36,5.36,0,0,1,4,1.65A5.29,5.29,0,0,1,59.3,676a5.35,5.35,0,0,1-1,3.19,5.52,5.52,0,0,1-2.68,2l4.25,7.21Zm-8.3-15.79v6.72h4.82a3,3,0,0,0,2.27-1,3.34,3.34,0,0,0,.95-2.4A3.23,3.23,0,0,0,56,673.6a3,3,0,0,0-2.27-1Z" style="fill:#fff"/><path d="M75.09,670.38h2.39v18H75.09Z" style="fill:#fff"/><path d="M98.94,688.41l-6.44-18h2.57l5.23,15,5.2-15h2.6l-6.46,18Z" style="fill:#fff"/><path d="M125.49,686.14h8.37v2.27H123.09v-18h10.64v2.27h-8.24v5.54h7.59v2.24h-7.59Z" style="fill:#fff"/><path d="M160.31,688.41l-4.05-6.9H152v6.9h-2.39v-18h7.21a5.36,5.36,0,0,1,4,1.65,5.29,5.29,0,0,1,1.65,3.94,5.35,5.35,0,0,1-1.05,3.19,5.52,5.52,0,0,1-2.68,2l4.25,7.21ZM152,672.62v6.72h4.82a3,3,0,0,0,2.26-1,3.31,3.31,0,0,0,1-2.4,3.2,3.2,0,0,0-1-2.37,3,3,0,0,0-2.26-1Z" style="fill:#fff"/><path d="M176.94,684.32l2.06-1.19c.7,2.19,2.32,3.27,4.82,3.27s3.81-1.11,3.81-2.78a2.21,2.21,0,0,0-1-1.93,13.87,13.87,0,0,0-3.27-1.37l-1.73-.56c-.38-.16-.9-.39-1.49-.67a4.76,4.76,0,0,1-1.31-.93,4.44,4.44,0,0,1-1.14-3,4.51,4.51,0,0,1,1.65-3.71,6,6,0,0,1,4-1.39,6.47,6.47,0,0,1,6.1,3.94l-2,1.16a4.11,4.11,0,0,0-4.09-2.78c-2,0-3.27,1-3.27,2.67a2.09,2.09,0,0,0,.85,1.81,10.71,10.71,0,0,0,2.93,1.28l1.06.34c.21.08.52.18,1,.36a9.28,9.28,0,0,1,1.81.85,4.1,4.1,0,0,1,1.39,1.18,3.69,3.69,0,0,1,.9,2.71,4.63,4.63,0,0,1-1.73,3.78,7,7,0,0,1-4.5,1.4C180.39,688.75,177.89,687.07,176.94,684.32Z" style="fill:#fff"/><path d="M231.56,670.38a5.8,5.8,0,1,1,0,11.59h-4.14v6.44H225v-18Zm0,9.35a3.29,3.29,0,0,0,2.48-1,3.65,3.65,0,0,0,1-2.55,3.4,3.4,0,0,0-3.45-3.56h-4.14v7.11Z" style="fill:#fff"/><path d="M263.78,688.41l-4-6.9h-4.25v6.9h-2.4v-18h7.21a5.38,5.38,0,0,1,4,1.65,5.44,5.44,0,0,1,.59,7.13,5.47,5.47,0,0,1-2.68,2l4.25,7.21Zm-8.29-15.79v6.72h4.81a3,3,0,0,0,2.27-1,3.34,3.34,0,0,0,.95-2.4,3.23,3.23,0,0,0-.95-2.37,3,3,0,0,0-2.27-1Z" style="fill:#fff"/><path d="M283.38,672.78a9.35,9.35,0,1,1,0,13.24,9.44,9.44,0,0,1,0-13.24Zm11.56,1.62a6.53,6.53,0,0,0-4.94-2,6.63,6.63,0,0,0-5,2,7.26,7.26,0,0,0,0,10,6.72,6.72,0,0,0,5,2,6.63,6.63,0,0,0,4.94-2,7.21,7.21,0,0,0,0-10Z" style="fill:#fff"/><path d="M325.48,672.65h-8v5.84h7.65v2.27H317.5v7.65h-2.39v-18h10.37Z" style="fill:#fff"/><path d="M343.66,686.14H352v2.27H341.27v-18h10.64v2.27h-8.25v5.54h7.6v2.24h-7.6Z" style="fill:#fff"/><path d="M366.79,684.32l2.06-1.19c.7,2.19,2.32,3.27,4.82,3.27s3.81-1.11,3.81-2.78a2.21,2.21,0,0,0-1-1.93,13.87,13.87,0,0,0-3.27-1.37l-1.73-.56c-.38-.16-.9-.39-1.49-.67a4.76,4.76,0,0,1-1.31-.93,4.44,4.44,0,0,1-1.14-3,4.51,4.51,0,0,1,1.65-3.71,6,6,0,0,1,4-1.39,6.47,6.47,0,0,1,6.1,3.94l-2,1.16a4.11,4.11,0,0,0-4.09-2.78c-2,0-3.27,1-3.27,2.67a2.09,2.09,0,0,0,.85,1.81,10.71,10.71,0,0,0,2.93,1.28l1.06.34c.21.08.52.18.95.36a9.56,9.56,0,0,1,1.81.85,4.1,4.1,0,0,1,1.39,1.18,3.69,3.69,0,0,1,.9,2.71,4.63,4.63,0,0,1-1.73,3.78,7,7,0,0,1-4.5,1.4C370.24,688.75,367.74,687.07,366.79,684.32Z" style="fill:#fff"/><path d="M393.93,684.32l2.06-1.19c.7,2.19,2.32,3.27,4.82,3.27s3.81-1.11,3.81-2.78a2.18,2.18,0,0,0-1-1.93,13.87,13.87,0,0,0-3.27-1.37l-1.72-.56c-.39-.16-.9-.39-1.5-.67a4.76,4.76,0,0,1-1.31-.93,4.8,4.8,0,0,1,.52-6.72,6,6,0,0,1,4-1.39,6.49,6.49,0,0,1,6.11,3.94l-2,1.16a4.12,4.12,0,0,0-4.1-2.78c-1.95,0-3.27,1-3.27,2.67a2.12,2.12,0,0,0,.85,1.81,10.8,10.8,0,0,0,2.94,1.28l1.05.34c.21.08.52.18,1,.36a9.45,9.45,0,0,1,1.8.85,4.1,4.1,0,0,1,1.39,1.18,3.69,3.69,0,0,1,.9,2.71,4.62,4.62,0,0,1-1.72,3.78,7,7,0,0,1-4.51,1.4C397.39,688.75,394.89,687.07,393.93,684.32Z" style="fill:#fff"/><path d="M422.57,670.38H425v18h-2.4Z" style="fill:#fff"/><path d="M443.46,672.78a9.35,9.35,0,1,1,0,13.24,9.44,9.44,0,0,1,0-13.24ZM455,674.4a6.53,6.53,0,0,0-4.94-2,6.61,6.61,0,0,0-5,2,7.26,7.26,0,0,0,0,10,6.71,6.71,0,0,0,5,2,6.63,6.63,0,0,0,4.94-2,7.21,7.21,0,0,0,0-10Z" style="fill:#fff"/><path d="M486.39,670.38h2.39v18h-1.93l-9.27-13.47v13.47h-2.39v-18h1.93l9.27,13.45Z" style="fill:#fff"/><path d="M517.39,688.41l-1.46-4h-8.12l-1.46,4H503.8l6.72-18h2.7l6.72,18Zm-8.75-6.28h6.46l-3.24-8.89Z" style="fill:#fff"/><path d="M537.35,686.14h7.78v2.27H535v-18h2.39Z" style="fill:#fff"/><path d="M558.93,684.32l2.06-1.19c.7,2.19,2.32,3.27,4.82,3.27s3.81-1.11,3.81-2.78a2.18,2.18,0,0,0-1-1.93,13.87,13.87,0,0,0-3.27-1.37l-1.72-.56c-.39-.16-.91-.39-1.5-.67a4.76,4.76,0,0,1-1.31-.93,4.48,4.48,0,0,1-1.13-3,4.53,4.53,0,0,1,1.64-3.71,6,6,0,0,1,4-1.39,6.49,6.49,0,0,1,6.11,3.94l-2,1.16a4.13,4.13,0,0,0-4.1-2.78c-2,0-3.27,1-3.27,2.67a2.09,2.09,0,0,0,.85,1.81,10.8,10.8,0,0,0,2.94,1.28l1.05.34c.21.08.52.18.95.36a9.28,9.28,0,0,1,1.81.85,4.1,4.1,0,0,1,1.39,1.18,3.69,3.69,0,0,1,.9,2.71,4.65,4.65,0,0,1-1.72,3.78,7,7,0,0,1-4.51,1.4C562.38,688.75,559.89,687.07,558.93,684.32Z" style="fill:#fff"/></g></g></svg>